# xmcd
#
# Track frame offsets: 
#        150
#        20617
#        38772
#        60454
#        79758
#        100112
#        118865
#        143232
#        159912
#        178570
#        198027
#        218373
#        237311
#        254852
#
# Disc length: 3638 seconds
#
# Revision: 0
# Processed by: cddbd v1.5.2PL0 Copyright (c) Steve Scherf et al.
# Submitted via: ExactAudioCopyFreeDBPlugin 1.0
#
DISCID=b60e340e
DTITLE=Aki Kumar - Hindi Man Blues
DYEAR=2018
DGENRE=Blues
TTITLE0=Dum Maaro Dum
TTITLE1=Bollywood Blues
TTITLE2=Yeh Chaand Sa Roshan Chehra
TTITLE3=Sajan Re Joot Mat Bolo
TTITLE4=Hindi Man Blues - Dekhaa Naa
TTITLE5=All Bark No Bite
TTITLE6=Watermelon Man
TTITLE7=Dilruba
TTITLE8=Yeh Shaam Mastaani
TTITLE9=Aaja Aaja
TTITLE10=Ruxaana
TTITLE11=Voh Surmayi Shaam
TTITLE12=Jaane Kahaan Mera Jigar Gaya Ji
TTITLE13=Ajeeb Daastaan Hai Yeh
EXTD=
EXTT0=
EXTT1=
EXTT2=
EXTT3=
EXTT4=
EXTT5=
EXTT6=
EXTT7=
EXTT8=
EXTT9=
EXTT10=
EXTT11=
EXTT12=
EXTT13=
PLAYORDER=
